<?xml version="1.0" encoding="UTF-8" standalone="no"?>
<!DOCTYPE svg PUBLIC "-//W3C//DTD SVG 1.1//EN" "http://www.w3.org/Graphics/SVG/1.1/DTD/svg11.dtd">
<svg width="100%" height="100%" viewBox="0 0 256 64" version="1.1" xmlns="http://www.w3.org/2000/svg" xmlns:xlink="http://www.w3.org/1999/xlink" xml:space="preserve" xmlns:serif="http://www.serif.com/" style="fill-rule:evenodd;clip-rule:evenodd;stroke-linejoin:round;stroke-miterlimit:2;">
    <g transform="matrix(1.26661,0,0,1.92359,-17.9065,-21.2399)">
        <path d="M59.613,35.995L64.666,44.313L14.137,27.677L64.666,11.042L59.613,19.36L203.62,19.36L216.252,11.042L216.252,44.313L203.62,35.995L59.613,35.995Z" style="fill:#ca6358;"/>
        <path d="M59.613,35.995L64.666,44.313L14.137,27.677L64.666,11.042L59.613,19.36L203.62,19.36L216.252,11.042L216.252,44.313L203.62,35.995L59.613,35.995ZM204.928,33.916L213.094,39.293L213.094,16.062L204.928,21.439L54.949,21.439L58.649,15.348L21.199,27.677L58.649,40.007L54.949,33.916L204.928,33.916Z" style="fill:#863f37;"/>
    </g>
</svg>
