<?xml version="1.0" encoding="UTF-8" standalone="no"?>
<!DOCTYPE svg PUBLIC "-//W3C//DTD SVG 1.1//EN" "http://www.w3.org/Graphics/SVG/1.1/DTD/svg11.dtd">
<svg width="100%" height="100%" viewBox="0 0 256 256" version="1.1" xmlns="http://www.w3.org/2000/svg" xmlns:xlink="http://www.w3.org/1999/xlink" xml:space="preserve" xmlns:serif="http://www.serif.com/" style="fill-rule:evenodd;clip-rule:evenodd;stroke-linejoin:round;stroke-miterlimit:2;">
    <g transform="matrix(1,0,0,1,-4.18938,-22.7015)">
        <circle cx="132.189" cy="124.537" r="52.251" style="fill:#ffbf70;"/>
    </g>
    <g transform="matrix(1.34525,0,0,1.07108,-39.7414,-14.7361)">
        <path d="M219.842,252.769C219.842,200.219 177.242,157.619 124.692,157.619C72.142,157.619 29.542,200.219 29.542,252.769L219.842,252.769Z" style="fill:#d7ddea;"/>
    </g>
    <g transform="matrix(1.34525,0,0,1.07108,-39.7414,-14.7361)">
        <path d="M97.211,161.648L124.692,197.833L152.173,161.648C191.325,173.44 219.842,209.774 219.842,252.769L29.542,252.769C29.542,209.774 58.059,173.44 97.211,161.648Z" style="fill:#556fa5;"/>
    </g>
    <g transform="matrix(-1.05853,-1.35193e-16,1.09601e-16,-0.961794,272.365,150.023)">
        <path d="M185.571,75.71C185.571,61.281 163.51,49.585 136.296,49.585C109.082,49.585 87.02,61.281 87.02,75.71L185.571,75.71Z" style="fill:#4c6494;"/>
    </g>
    <g transform="matrix(2.62847,0,0,2.09544,-226.778,-46.9669)">
        <path d="M134.975,22.414L161.674,35.566L168.542,49.286L154.895,59.258L115.131,59.258L101.408,49.286L107.837,35.566L134.975,22.414Z" style="fill:#556fa5;"/>
    </g>
    <g transform="matrix(1.05565,0,0,1.04798,74.8806,-85.2688)">
        <path d="M50.319,143.588C40.382,140.639 33.839,131.053 30.656,121.35L30.656,101.836C40.328,101.946 46.979,99.034 50.319,92.813C53.66,99.034 60.31,101.946 69.983,101.836L69.983,121.35C66.8,131.053 60.257,140.639 50.319,143.588Z" style="fill:#ffbf70;"/>
    </g>
</svg>
