<?xml version="1.0" encoding="UTF-8" standalone="no"?>
<!DOCTYPE svg PUBLIC "-//W3C//DTD SVG 1.1//EN" "http://www.w3.org/Graphics/SVG/1.1/DTD/svg11.dtd">
<svg width="100%" height="100%" viewBox="0 0 256 256" version="1.1" xmlns="http://www.w3.org/2000/svg" xmlns:xlink="http://www.w3.org/1999/xlink" xml:space="preserve" xmlns:serif="http://www.serif.com/" style="fill-rule:evenodd;clip-rule:evenodd;stroke-linejoin:round;stroke-miterlimit:2;">
    <g transform="matrix(1.15423,0,0,2.51832,-15.7015,-63.9034)">
        <rect x="24" y="31" width="201" height="11" style="fill:#271107;"/>
    </g>
    <g transform="matrix(1.15423,0,0,2.51832,-15.7015,136.066)">
        <rect x="24" y="31" width="201" height="11" style="fill:#271107;"/>
    </g>
    <g transform="matrix(1.73134,0,0,1.03001,-48.9732,-5.51436)">
        <path d="M58.876,45.999L58.876,213.249L42,213.249L42,45.999L58.876,45.999ZM84.342,77.751L92.931,77.751L92.931,45.999L109.807,45.999L109.807,77.751L118.396,77.751L118.396,45.999L135.273,45.999L135.273,213.249L118.396,213.249L118.396,181.498L109.807,181.498L109.807,213.249L92.931,213.249L92.931,181.498L84.342,181.498L84.342,213.249L67.465,213.249L67.465,45.999L84.342,45.999L84.342,77.751ZM96.979,129.998L93.215,161.507L111.22,161.507L107.456,129.998C110.886,127.091 113.217,121.419 113.217,114.905C113.217,105.433 108.288,97.742 102.217,97.742C96.147,97.742 91.218,105.433 91.218,114.905C91.218,121.419 93.549,127.091 96.979,129.998ZM160.738,45.999L160.738,213.249L143.862,213.249L143.862,45.999L160.738,45.999Z" style="fill:#909aad;"/>
    </g>
</svg>
