<?xml version="1.0" encoding="UTF-8" standalone="no"?>
<!DOCTYPE svg PUBLIC "-//W3C//DTD SVG 1.1//EN" "http://www.w3.org/Graphics/SVG/1.1/DTD/svg11.dtd">
<svg width="100%" height="100%" viewBox="0 0 256 256" version="1.1" xmlns="http://www.w3.org/2000/svg" xmlns:xlink="http://www.w3.org/1999/xlink" xml:space="preserve" xmlns:serif="http://www.serif.com/" style="fill-rule:evenodd;clip-rule:evenodd;stroke-linejoin:round;stroke-miterlimit:2;">
    <g transform="matrix(0.918791,0,0,1.08018,-20.1164,17.8427)">
        <path d="M80,212L21.894,212L65.664,162.102L80,162.102L80,212Z" style="fill:#4c6494;"/>
    </g>
    <g transform="matrix(1.28643,0,0,1.17443,-16.0803,-21.229)">
        <rect x="54" y="76" width="20" height="52" style="fill:#4c6494;"/>
    </g>
    <g transform="matrix(1.28643,0,0,1.28643,-36.6633,-12.3746)">
        <path d="M152.5,77.5L134.5,77.5L134.5,62.5L227.5,62.5L227.5,77.5L221.5,77.5L221.5,170.5L59.898,170.5C42.558,170.444 28.5,156.351 28.5,139C28.5,121.615 42.615,107.5 60,107.5L152.5,107.5L152.5,77.5Z" style="fill:#788eba;"/>
    </g>
    <g transform="matrix(1.28643,0,0,1.28643,-21.8693,-30.8744)">
        <g transform="matrix(0.532104,0,0,0.532104,17.364,40.4847)">
            <circle cx="89.621" cy="45.268" r="14.902" style="fill:#c5ccdb;"/>
        </g>
        <g transform="matrix(1,0,0,1,3.49805e-05,18.8807)">
            <rect x="155" y="78" width="40" height="37" style="fill:#d7ddea;"/>
        </g>
        <g transform="matrix(0.622616,0.170843,-0.170843,0.622616,75.867,4.2693)">
            <path d="M96.098,58.691C94.139,59.639 91.941,60.171 89.621,60.171C81.396,60.171 74.718,53.493 74.718,45.268C74.718,37.043 81.396,30.366 89.621,30.366C89.925,30.366 90.228,30.375 90.528,30.393C93.332,20.661 102.31,13.533 112.939,13.533C125.809,13.533 136.258,23.982 136.258,36.852C136.258,49.722 125.809,60.171 112.939,60.171C112.889,60.171 112.838,60.17 112.788,60.17C112.018,64.031 108.608,66.944 104.523,66.944C99.93,66.944 96.191,63.262 96.098,58.691Z" style="fill:#c5ccdb;"/>
        </g>
        <g transform="matrix(0.526434,0,0,0.526434,36.8232,31.2139)">
            <path d="M103.648,50.306C101.581,56.055 96.078,60.171 89.621,60.171C81.396,60.171 74.718,53.493 74.718,45.268C74.718,37.043 81.396,30.366 89.621,30.366C91.547,30.366 93.389,30.732 95.08,31.399C96.416,22.06 104.457,14.871 114.163,14.871C124.803,14.871 133.441,23.509 133.441,34.149C133.441,44.789 124.803,53.427 114.163,53.427C110.285,53.427 106.673,52.28 103.648,50.306Z" style="fill:#c5ccdb;"/>
        </g>
    </g>
    <g transform="matrix(1.28643,0,0,1.28643,-16.7236,-33.6007)">
        <rect x="49" y="68" width="31" height="11" style="fill:#271107;"/>
    </g>
    <g transform="matrix(1.60428,0,0,1.60428,-44.7037,-93.4903)">
        <g transform="matrix(1,0,0,1,-8.40285,15.14)">
            <circle cx="87.341" cy="181.5" r="15.5" style="fill:#271107;"/>
        </g>
        <g transform="matrix(1,0,0,1,84.5971,15.14)">
            <circle cx="87.341" cy="181.5" r="15.5" style="fill:#271107;"/>
        </g>
        <g transform="matrix(1,0,0,1,22.5971,15.14)">
            <circle cx="87.341" cy="181.5" r="15.5" style="fill:#271107;"/>
        </g>
    </g>
    <g transform="matrix(1.60428,0,0,1.60428,41.2811,-69.2016)">
        <circle cx="87.341" cy="181.5" r="15.5" style="fill:#271107;"/>
    </g>
</svg>
